<?xml version="1.0" encoding="utf-8"?>
<!-- Generator: Adobe Illustrator 28.3.0, SVG Export Plug-In . SVG Version: 6.00 Build 0)  -->
<svg version="1.1" id="레이어_1" xmlns="http://www.w3.org/2000/svg" xmlns:xlink="http://www.w3.org/1999/xlink" x="0px"
	 y="0px" width="448px" height="448px" viewBox="0 0 448 448" style="enable-background:new 0 0 448 448;" xml:space="preserve">
<style type="text/css">
	.st0{display:none;}
	.st1{display:inline;fill:url(#SVGID_1_);stroke:#FFCE00;stroke-width:20;stroke-miterlimit:10;}
	.st2{display:inline;fill:#FFFFFF;}
	.st3{font-family:'Poppins-Medium';}
	.st4{font-size:286.3842px;}
	.st5{display:inline;fill:#D6D6D6;}
	.st6{display:inline;fill:#F24A2F;}
	.st7{display:inline;}
	.st8{fill-rule:evenodd;clip-rule:evenodd;fill:#606060;}
	.st9{display:none;fill:#606060;}
	.st10{display:inline;fill:#606060;}
	.st11{fill:#D6D6D6;}
</style>
<g class="st0">
	
		<radialGradient id="SVGID_1_" cx="224.4" cy="617.9" r="211" fx="433.331" fy="647.3758" gradientTransform="matrix(1 0 0 1 0 -394)" gradientUnits="userSpaceOnUse">
		<stop  offset="0" style="stop-color:#615F5F"/>
		<stop  offset="1.728541e-02" style="stop-color:#605D5D"/>
		<stop  offset="0.4469" style="stop-color:#3F3836"/>
		<stop  offset="0.7894" style="stop-color:#2A211E"/>
		<stop  offset="1" style="stop-color:#231815"/>
	</radialGradient>
	<circle class="st1" cx="224.4" cy="223.9" r="211"/>
	<text transform="matrix(1 0 0 1 135.5205 326.2079)" class="st2 st3 st4">8</text>
</g>
<g class="st0">
	<path class="st5" d="M57.5,438.9h-6c-22.9,0-41.5-18.6-41.5-41.5v-348C10,26.5,28.6,7.9,51.5,7.9h6C80.4,7.9,99,26.5,99,49.4v348
		C99,420.3,80.4,438.9,57.5,438.9z"/>
	<path class="st5" d="M401,438.9h-6c-22.9,0-41.5-18.6-41.5-41.5v-348c0-22.9,18.6-41.5,41.5-41.5h6c22.9,0,41.5,18.6,41.5,41.5v348
		C442.5,420.3,423.9,438.9,401,438.9z"/>
	<path class="st6" d="M442.4,137.4v6c0,22.9-18.6,41.5-41.5,41.5h-348c-22.9,0-41.5-18.6-41.5-41.5v-6c0-22.9,18.6-41.5,41.5-41.5
		h348C423.9,95.9,442.4,114.5,442.4,137.4z"/>
	<path class="st6" d="M440.5,289.9v6c0,22.9-18.6,41.5-41.5,41.5H51c-22.9,0-41.5-18.6-41.5-41.5v-6c0-22.9,18.6-41.5,41.5-41.5h348
		C421.9,248.4,440.5,267,440.5,289.9z"/>
	<path class="st6" d="M401,337.4h-6c-22.9,0-41.5-18.6-41.5-41.5V137.4c0-22.9,18.6-41.5,41.5-41.5h6c22.9,0,41.5,18.6,41.5,41.5
		v158.5C442.5,318.8,423.9,337.4,401,337.4z"/>
</g>
<g id="Page-1" class="st0">
	<g id="icon-114-lock" class="st7">
		<path id="lock" class="st8" d="M215.1,309.8v41.4c0,4.3,3.7,7.8,8,7.8c4.4,0,8-3.6,8-7.8v-41.4c9.3-3.3,16-12.2,16-22.6
			c0-13.2-10.7-23.9-23.9-23.9s-23.9,10.7-23.9,23.9C199.1,297.7,205.8,306.5,215.1,309.8L215.1,309.8z M103.3,183.5v-55.9
			C103.3,61.5,156.9,7.9,223,7.9c66,0,119.7,53.6,119.7,119.7v55.9c26.5,0.1,47.9,21.6,47.9,48v159.3c0,26.7-21.5,48-48,48H103.5
			c-26.5,0-48-21.5-48-48V231.5C55.4,204.9,76.9,183.6,103.3,183.5L103.3,183.5L103.3,183.5z M151.2,183.5v-55.9
			c0-39.8,32.2-71.8,71.8-71.8s71.8,32.2,71.8,71.8v55.9H151.2L151.2,183.5L151.2,183.5z"/>
	</g>
</g>
<path class="st9" d="M108.3,411.2c35.6,0,64.5-30,64.5-67.1S143.9,277,108.3,277s-64.5,30-64.5,67.1S72.7,411.2,108.3,411.2z
	 M340.7,169.8c35.6,0,64.5-30,64.5-67.1s-28.9-67.1-64.5-67.1s-64.5,30-64.5,67.1S305,169.8,340.7,169.8z M340.7,411.2
	c-35.6,0-64.5-30-64.5-67.1s28.9-67.1,64.5-67.1s64.5,30,64.5,67.1S376.3,411.2,340.7,411.2z M431,102.7c0,51.9-40.4,93.9-90.3,93.9
	s-90.3-42-90.3-93.9s40.4-93.9,90.3-93.9S431,50.9,431,102.7z M198.7,344.2c0,51.9-40.4,93.9-90.3,93.9S18,396,18,344.2
	s40.4-93.9,90.3-93.9S198.7,292.3,198.7,344.2z M340.7,438.1c49.9,0,90.3-42,90.3-93.9s-40.4-93.9-90.3-93.9s-90.3,42-90.3,93.9
	S290.8,438.1,340.7,438.1z M108.3,143c-21.4,0-38.7-18-38.7-40.2S87,62.5,108.3,62.5s38.7,18,38.7,40.2S129.7,143,108.3,143z
	 M108.3,196.6c49.9,0,90.3-42,90.3-93.9S158.2,8.8,108.3,8.8S18,50.9,18,102.7S58.4,196.6,108.3,196.6z"/>
<g class="st0">
	<path class="st10" d="M433.6,118c-2.3-18.9-20.1-37-38.7-39.4c-113.5-14.1-228.3-14.1-341.8,0C34.5,81,16.7,99.1,14.4,118
		c-8,69.2-8,136.3,0,205.5c2.3,18.9,20.1,37,38.7,39.4c113.5,14.1,228.3,14.1,341.8,0c18.6-2.4,36.4-20.5,38.7-39.4
		C441.6,254.3,441.6,187.2,433.6,118z M397.9,319.3c-0.4,2.5-5,7.3-7.7,7.9c-54.8,6.8-110.8,10.3-166.2,10.3S112.5,334,57.5,327.2
		c-2.4-0.5-7-5.4-7.4-8.1c-7.7-66.2-7.7-130.7,0-197c0.4-2.5,5-7.4,7.7-7.9c54.7-6.8,110.8-10.3,166.2-10.3s111.4,3.5,166.5,10.3
		c2.4,0.5,7,5.4,7.4,8.1C405.6,188.5,405.6,253,397.9,319.3z"/>
	<path class="st10" d="M188.1,148.8v143.7l107.8-71.9L188.1,148.8z"/>
</g>
<path class="st11" d="M110,245.5c-11-11-11-28.8,0-39.7L297.5,18.2c11-11,28.8-11,39.7,0s11,28.8,0,39.7L169.6,225.5l167.7,167.7
	c11,11,11,28.8,0,39.7s-28.8,11-39.7,0L110,245.5z"/>
</svg>
