<?xml version="1.0" encoding="UTF-8"?>
<svg id="Layer_1" data-name="Layer 1" xmlns="http://www.w3.org/2000/svg" width="32.9mm" height="32.9mm" version="1.1" viewBox="0 0 93.3 93.3">
  <defs>
    <style>
      .cls-1 {
        fill: #fff;
        stroke-width: 0px;
      }
    </style>
  </defs>
  <path class="cls-1" d="M49.4,42.4l-.2.2-.2.2h0c-.6.6-1.3,1.1-2.1,1.6-2,1.1-4.1.5-6-.6-1.8-1-3.5-2.1-5.1-3.2-1.7-1.3-3.4-2.6-5.5-3.2-3.6-1.1-7.5,2.4-5.7,6.2v.2c4.3,6.3,8.8,12.6,14.1,18.2,1,1,2,2,3,2.7,1.9,1.4,4.4,1.1,6.4,0s2.4-1.6,3.4-2.6h0c.7-.8,1.4-1.6,2.1-2.4.9-1.2,1.9-2.3,2.7-3.6l4.5-5.9c2.6-3.3,5.2-6.6,7.8-9.9,1.6-1.9,3-3.8,4.6-5.8.5-.6,1-1.3,1.5-1.9h0l.2-.3c.2-.3.4-.6.6-.8,0,0,.2-.2.2-.3l2-2.6h0c.2-.3.4-.6.7-.9l.3-.4h0c.3-.4.6-.9,1-1.3h0c2.6-3.6,3.4-7.6.3-9.4-2.7-1.6-6.2,1.5-7,2.3l-.2.2h0c-1.2,1.1-2.2,2.2-3.4,3.3-2.5,2.5-5.2,5.1-7.7,7.6l-12.5,12.4.3-.2Z"/>
  <path class="cls-1" d="M81.4,34.3l-3.5,5.2c.7,2.6,1.1,5.3,1.1,8.1,0,18.2-14.9,33.1-33.1,33.1S12.7,65.7,12.7,47.5,27.6,14.4,45.9,14.4s12.5,1.9,17.6,5.1l3.8-3.3c-6.1-4.2-13.5-6.6-21.4-6.6-21,0-38,17-38,37.9s17,37.9,37.9,37.9,37.9-17,37.9-37.9-.9-9.2-2.4-13.3h0Z"/>
</svg>