<svg width="26" height="26" viewBox="0 0 26 26" fill="none" xmlns="http://www.w3.org/2000/svg">
<g id="Layer_1" clip-path="url(#clip0_14180_253)">
<path id="Vector" d="M13.0013 0C5.83237 0 0 5.83237 0 13.0013C0 20.1703 5.83237 26.0026 13.0013 26.0026C20.1703 26.0026 26.0026 20.1703 26.0026 13.0013C26.0026 5.83237 20.1703 0 13.0013 0ZM13.0013 24.4151C6.7067 24.4151 1.58488 19.2933 1.58488 12.9987C1.58488 6.70405 6.7067 1.58488 13.0013 1.58488C19.2959 1.58488 24.4178 6.7067 24.4178 13.0013C24.4178 19.2959 19.2959 24.4178 13.0013 24.4178V24.4151Z" fill="#787878"/>
<path id="Vector_2" d="M17.603 10.9464V9.65205C17.603 8.07509 16.7207 7.28793 14.9562 7.28793H14V5.80078H12.0717V7.28793H11.0442C9.27971 7.28793 8.39746 8.07509 8.39746 9.65205V11.6913C8.39746 13.2682 9.27971 14.0554 11.0442 14.0554H14.4781C14.7581 14.0554 14.9008 14.1954 14.9008 14.478V16.2504C14.9008 16.5331 14.7608 16.6731 14.4781 16.6731H11.6623C11.3797 16.6731 11.2397 16.5331 11.2397 16.2504V15.0539H8.39746V16.4882C8.39746 18.0651 9.27971 18.8523 11.0442 18.8523H12.0717V20.1994H14V18.8523H14.9562C16.7207 18.8523 17.603 18.0651 17.603 16.4882V14.3063C17.603 12.7294 16.7207 11.9422 14.9562 11.9422H11.5223C11.2397 11.9422 11.0997 11.8022 11.0997 11.5196V9.88714C11.0997 9.6045 11.2397 9.4645 11.5223 9.4645H14.3381C14.6208 9.4645 14.7608 9.6045 14.7608 9.88714V10.9437H17.603V10.9464Z" fill="white"/>
</g>
<defs>
<clipPath id="clip0_14180_253">
<rect width="26" height="26" fill="white"/>
</clipPath>
</defs>
</svg>
