<svg width="26" height="26" viewBox="0 0 26 26" fill="none" xmlns="http://www.w3.org/2000/svg">
<g id="Layer_1" clip-path="url(#clip0_14180_237)">
<path id="Vector" d="M18.5589 6.84668L13.1492 11.9843C12.9405 12.1825 12.9167 11.9632 12.9141 11.876C12.922 11.2077 13.0303 10.3149 13.4715 9.61758C13.8914 8.95193 13.873 8.6376 13.8465 8.53458C13.8413 8.52137 13.8386 8.50816 13.8333 8.49496C13.7805 8.37609 13.6986 8.281 13.5903 8.24402C13.379 8.16741 13.1492 8.27043 13.0409 8.33119C12.4122 8.70099 10.7164 9.91079 10.5843 12.1719C10.4338 12.156 10.2806 12.1428 10.1221 12.1428C7.87417 12.1428 6.0542 13.9654 6.0542 16.2107C6.0542 18.4559 7.87681 20.2786 10.1221 20.2786C12.3673 20.2786 14.1899 18.4559 14.1899 16.2107C14.1899 16.1103 14.182 16.0126 14.1741 15.9149C15.2201 15.8303 16.2027 15.1092 16.6174 14.5835C17.0955 13.976 16.7654 13.5534 15.9729 13.7383C15.1831 13.9232 14.0605 13.6088 14.0605 13.6088C14.0605 13.6088 13.7356 13.5005 14.0605 13.1994L17.8404 9.69154L18.4559 9.68626L19.9431 8.2176L18.5536 6.84932L18.5589 6.84668ZM10.5949 17.6899L8.75907 15.8541L9.45906 15.1541L11.2949 16.9899L10.5949 17.6899ZM13.5665 14.3775C13.3843 14.6522 13.0277 15.0168 12.8349 15.2043C12.7054 15.3337 12.5839 15.4103 12.51 15.45C12.5073 15.45 12.5047 15.4526 12.502 15.4552C12.4967 15.4552 12.4941 15.4579 12.4915 15.4605C12.1983 15.6032 11.6409 15.7616 11.0492 15.3337C10.1855 14.7077 10.5341 13.7885 11.0492 13.2734C11.5643 12.7583 12.0239 12.2802 12.5205 12.5206L11.8786 13.1466C11.8311 13.1941 11.67 13.3632 11.5881 13.5771C11.5881 13.5824 11.5828 13.5904 11.5802 13.5956C11.5722 13.6221 11.5643 13.6485 11.5564 13.6749C11.5009 13.8968 11.5115 14.1794 11.7651 14.4515C12.2986 15.022 13.3288 14.0843 13.5665 13.77C13.5665 13.77 13.8228 13.9919 13.5665 14.3775Z" fill="white"/>
<path id="Vector_2" d="M13.0013 0C5.83237 0 0 5.83237 0 13.0013C0 20.1703 5.83237 26.0026 13.0013 26.0026C20.1703 26.0026 26.0026 20.1703 26.0026 13.0013C26.0026 5.83237 20.1703 0 13.0013 0ZM13.0013 24.4151C6.7067 24.4151 1.58488 19.2933 1.58488 12.9987C1.58488 6.70405 6.7067 1.58488 13.0013 1.58488C19.2959 1.58488 24.4178 6.7067 24.4178 13.0013C24.4178 19.2959 19.2959 24.4178 13.0013 24.4178V24.4151Z" fill="#787878"/>
</g>
<defs>
<clipPath id="clip0_14180_237">
<rect width="26" height="26" fill="white"/>
</clipPath>
</defs>
</svg>
