<svg width="26" height="26" viewBox="0 0 26 26" fill="none" xmlns="http://www.w3.org/2000/svg">
<g id="Layer_1" clip-path="url(#clip0_14180_245)">
<path id="Vector" d="M13.0012 5.90625C9.08394 5.90625 5.90625 9.0813 5.90625 13.0012C5.90625 16.9212 9.0813 20.0962 13.0012 20.0962C16.9212 20.0962 20.0962 16.9212 20.0962 13.0012C20.0962 9.0813 16.9212 5.90625 13.0012 5.90625ZM17.3016 8.47376C18.16 9.28997 18.7861 10.3466 19.074 11.5352L17.8246 11.8786C17.5974 10.9066 17.085 10.0454 16.3797 9.38507L17.3016 8.47376ZM13.0012 6.74624C13.6141 6.74624 14.2058 6.83869 14.7657 7.0051L14.4408 8.25716C13.9865 8.1198 13.5031 8.0432 13.0039 8.0432C12.5046 8.0432 12.0213 8.1198 11.5643 8.25716L11.2394 7.0051C11.7994 6.83869 12.3911 6.74624 13.0039 6.74624H13.0012ZM8.69828 8.47376L9.62016 9.38507C8.91488 10.0454 8.40244 10.9066 8.17527 11.8786L6.92586 11.5352C7.21378 10.3466 7.83717 9.28997 8.69828 8.47376ZM8.69828 17.5287C7.83981 16.7125 7.21378 15.6559 6.92586 14.4673L8.17527 14.1239C8.40244 15.0959 8.91488 15.957 9.62016 16.6174L8.69828 17.5287ZM13.0012 19.2536C12.3884 19.2536 11.7967 19.1612 11.2367 18.9947L11.5616 17.7427C12.016 17.88 12.4994 17.9566 13.0012 17.9566C13.5031 17.9566 13.9839 17.88 14.4382 17.7427L14.7631 18.9947C14.2031 19.1612 13.6114 19.2536 12.9986 19.2536H13.0012ZM13.0012 16.6887C10.9647 16.6887 9.31375 15.0378 9.31375 13.0012C9.31375 10.9647 10.9647 9.31375 13.0012 9.31375C15.0378 9.31375 16.6887 10.9647 16.6887 13.0012C16.6887 15.0378 15.0378 16.6887 13.0012 16.6887ZM17.3016 17.5287L16.3797 16.6174C17.085 15.957 17.5974 15.0959 17.8246 14.1239L19.074 14.4673C18.7861 15.6559 18.1627 16.7125 17.3016 17.5287Z" fill="white"/>
<path id="Vector_2" d="M13.0013 0C5.83237 0 0 5.83237 0 13.0013C0 20.1703 5.83237 26.0026 13.0013 26.0026C20.1703 26.0026 26.0026 20.1703 26.0026 13.0013C26.0026 5.83237 20.1703 0 13.0013 0ZM13.0013 24.4151C6.7067 24.4151 1.58488 19.2933 1.58488 12.9987C1.58488 6.70405 6.7067 1.58488 13.0013 1.58488C19.2959 1.58488 24.4178 6.7067 24.4178 13.0013C24.4178 19.2959 19.2959 24.4178 13.0013 24.4178V24.4151Z" fill="#787878"/>
</g>
<defs>
<clipPath id="clip0_14180_245">
<rect width="26" height="26" fill="white"/>
</clipPath>
</defs>
</svg>
