<svg width="26" height="26" viewBox="0 0 26 26" fill="none" xmlns="http://www.w3.org/2000/svg">
<g id="Layer_1" clip-path="url(#clip0_14180_229)">
<path id="Vector" d="M13.0013 0C5.83237 0 0 5.83237 0 13.0013C0 20.1703 5.83237 26.0026 13.0013 26.0026C20.1703 26.0026 26.0026 20.1703 26.0026 13.0013C26.0026 5.83237 20.1703 0 13.0013 0ZM13.0013 24.4151C6.7067 24.4151 1.58488 19.2933 1.58488 12.9987C1.58488 6.70405 6.7067 1.58488 13.0013 1.58488C19.2959 1.58488 24.4178 6.7067 24.4178 13.0013C24.4178 19.2959 19.2959 24.4178 13.0013 24.4178V24.4151Z" fill="#787878"/>
<path id="Vector_2" d="M16.591 9.23985C16.4642 9.12099 16.3242 8.99155 16.171 8.85684C16.1446 8.83571 16.1235 8.81193 16.0971 8.7908C16.0733 8.77231 16.0495 8.75118 16.0284 8.73005C15.7854 8.52137 15.5186 8.30477 15.2201 8.07761C14.4726 7.52025 13.5956 7.01045 12.7054 6.84668V15.1303C12.3013 14.9745 11.8417 14.8873 11.3556 14.8873C9.74434 14.8873 8.43945 15.8435 8.43945 17.0216C8.43945 18.1997 9.74434 19.1559 11.3556 19.1559C12.9669 19.1559 14.2718 18.1997 14.2718 17.0216C14.2718 16.9846 14.2665 16.9477 14.2639 16.908L14.2718 16.9133V11.2368C14.2718 11.2368 15.7907 11.9843 16.1525 12.996C16.5144 14.0077 15.7431 15.5028 15.7431 15.5028C15.7431 15.5028 17.6714 14.6602 18.3238 13.3685C18.7253 12.576 18.4031 11.596 17.9408 10.8142C17.7163 10.4602 17.3069 9.92135 16.5937 9.24249L16.591 9.23985Z" fill="white"/>
</g>
<defs>
<clipPath id="clip0_14180_229">
<rect width="26" height="26" fill="white"/>
</clipPath>
</defs>
</svg>
