<svg width="26" height="26" viewBox="0 0 26 26" fill="none" xmlns="http://www.w3.org/2000/svg">
<g id="Layer_1" clip-path="url(#clip0_14180_206)">
<path id="Vector" d="M13.0013 0C5.83237 0 0 5.83237 0 13.0013C0 20.1703 5.83237 26.0026 13.0013 26.0026C20.1703 26.0026 26.0026 20.1703 26.0026 13.0013C26.0026 5.83237 20.1676 0 13.0013 0ZM13.0013 24.4151C6.7067 24.4151 1.58488 19.2933 1.58488 12.9987C1.58488 6.70405 6.7067 1.58488 13.0013 1.58488C19.2959 1.58488 24.4178 6.7067 24.4178 13.0013C24.4178 19.2959 19.2959 24.4178 13.0013 24.4178V24.4151Z" fill="#787878"/>
<path id="Vector_2" d="M16.5011 7.27212C15.3098 6.16534 13.1834 5.76384 11.3291 6.29477C9.54874 6.80458 8.50271 8.32078 8.46045 10.4577C8.46045 10.5158 8.48158 10.574 8.52384 10.6162C8.56611 10.6585 8.62158 10.6823 8.67969 10.6823H11.1997C11.3185 10.6823 11.4136 10.5898 11.4189 10.4709C11.4347 10.117 11.5642 9.27171 12.4385 9.06304C13.0857 8.90719 14.0075 9.01021 14.3747 9.44077C14.5702 9.67322 14.586 9.99019 14.4196 10.3838C14.1528 11.0124 13.6298 11.4139 13.0751 11.8366C12.4887 12.2856 11.8838 12.7505 11.6064 13.5007C11.3634 14.1584 11.3264 14.9033 11.3238 15.5452C11.3238 15.6033 11.3476 15.6614 11.3898 15.7011C11.4321 15.7433 11.4876 15.7671 11.5483 15.7644L13.2494 15.746C13.2706 15.746 13.3075 15.7512 13.3498 15.7539C13.4475 15.7618 13.54 15.7724 13.6192 15.7724C13.7619 15.7724 13.8755 15.746 13.9415 15.6482C13.9653 15.6165 13.9785 15.5769 13.9811 15.5373L13.9943 15.355C14.0313 14.7871 14.0657 14.2535 14.409 13.8388C14.726 13.4558 15.1434 13.1652 15.5845 12.8562C16.3822 12.2988 17.209 11.7204 17.452 10.5502C17.798 8.88077 17.1298 7.84268 16.509 7.26684L16.5011 7.27212Z" fill="white"/>
<path id="Vector_3" d="M12.4677 16.7366C11.8707 16.8052 11.382 17.1777 11.1575 17.735C10.933 18.2897 11.0307 18.8973 11.4137 19.3595C11.7201 19.7294 12.1745 19.9354 12.6605 19.9354C12.7371 19.9354 12.8137 19.9301 12.8903 19.9195C13.4503 19.8456 13.9178 19.5048 14.145 19.0109C14.3907 18.472 14.3326 17.8698 13.9892 17.3969C13.6379 16.9135 13.0699 16.6652 12.4677 16.7339V16.7366Z" fill="white"/>
</g>
<defs>
<clipPath id="clip0_14180_206">
<rect width="26" height="26" fill="white"/>
</clipPath>
</defs>
</svg>
