<svg width="26" height="26" viewBox="0 0 26 26" fill="none" xmlns="http://www.w3.org/2000/svg">
<g id="Layer_1" clip-path="url(#clip0_14180_218)">
<path id="Vector" d="M11.9315 11.3027H9.7417V16.2555H11.9315V11.3027Z" fill="white"/>
<path id="Vector_2" d="M15.3787 9.17383H13.189V16.2556H15.3787V9.17383Z" fill="white"/>
<path id="Vector_3" d="M18.8231 7.33789H16.6333V16.2555H18.8231V7.33789Z" fill="white"/>
<path id="Vector_4" d="M8.06957 7.33789H7.17676V17.46V18.3555H8.06957H18.8256V17.46H8.06957V7.33789Z" fill="white"/>
<path id="Vector_5" d="M13.0013 0C5.83237 0 0 5.83237 0 13.0013C0 20.1703 5.83237 26.0026 13.0013 26.0026C20.1703 26.0026 26.0026 20.1703 26.0026 13.0013C26.0026 5.83237 20.1676 0 13.0013 0ZM13.0013 24.4151C6.7067 24.4151 1.58488 19.2933 1.58488 12.9987C1.58488 6.70405 6.7067 1.58488 13.0013 1.58488C19.2959 1.58488 24.4178 6.7067 24.4178 13.0013C24.4178 19.2959 19.2959 24.4178 13.0013 24.4178V24.4151Z" fill="#787878"/>
</g>
<defs>
<clipPath id="clip0_14180_218">
<rect width="26" height="26" fill="white"/>
</clipPath>
</defs>
</svg>
