<?xml version="1.0" encoding="UTF-8"?>
<svg id="Layer_1" data-name="Layer 1" xmlns="http://www.w3.org/2000/svg" width="93.3" height="93.3" version="1.1" viewBox="0 0 93.3 93.3">
  <defs>
    <style>
      .cls-1 {
        fill: #fff;
        stroke-width: 0px;
      }
    </style>
  </defs>
  <path class="cls-1" d="M46.7,72.1c-12.7,0-23.3-9.4-25.1-21.7h5.4c.6,0,1.2-.4,1.4-.9.3-.6.2-1.2-.2-1.7l-11-12.9c-.3-.3-.7-.5-1.2-.5s-.9.2-1.2.5l-11,12.9c-.4.5-.5,1.1-.2,1.7.3.6.8.9,1.4.9h6c1.9,18,17.2,32.1,35.7,32.1s19.1-3.9,26-11.1l-7.5-7.2c-4.8,5.1-11.4,7.9-18.4,7.9Z"/>
  <path class="cls-1" d="M89.7,45.2c-.3-.6-.8-.9-1.4-.9h-5.9c-1.2-18.9-16.7-33.5-35.7-33.5s-19.4,4.1-26.1,11.3l7.6,7.1c4.9-5.2,11.4-8,18.5-8,13.3,0,24.1,10,25.3,23.1h-5.6c-.6,0-1.2.4-1.4.9-.3.6-.2,1.2.2,1.7l11,12.9c.3.3.7.5,1.2.5s.9-.2,1.2-.5l11-12.9c.4-.5.5-1.1.2-1.7Z"/>
</svg>