<?xml version="1.0" encoding="UTF-8"?>
<svg id="Layer_1" data-name="Layer 1" xmlns="http://www.w3.org/2000/svg" width="93.3" height="93.3" version="1.1" viewBox="0 0 93.3 93.3">
  <defs>
    <style>
      .cls-1 {
        fill: #fff;
        stroke-width: 0px;
      }
    </style>
  </defs>
  <path class="cls-1" d="M48.4,10.3c-14,0-26.4,7.9-32.5,19.8l-7-3.1c-.7-.3-1.4-.2-2,.3-.5.5-.8,1.2-.6,1.9l5.6,19.3c.2.5.5.9,1,1.2.5.2,1.1.2,1.5,0l18.1-8.7c.6-.3,1.1-1,1-1.7,0-.7-.4-1.4-1.1-1.7l-7-3.1c4.4-8.2,13.1-13.5,22.8-13.5,14.3,0,26,11.7,26,26s-11.7,26-26,26-14.4-3.1-19.3-8.6l-7.9,7.1c6.9,7.7,16.8,12.1,27.2,12.1,20.2,0,36.6-16.4,36.6-36.6S68.6,10.3,48.4,10.3Z"/>
</svg>